# xmcd
#
# Track frame offsets: 
#        150
#        13337
#        26222
#        41782
#        54667
#        67240
#        82497
#        97847
#        112690
#        125672
#        138205
#        151515
#        163922
#        178640
#        190635
#        204527
#        218890
#        231830
#        245262
#        259360
#        273625
#        287382
#        301105
#        315582
#        328397
#
# Disc length: 4541 seconds
#
# Revision: 1
# Processed by: cddbd v1.5.2PL0 Copyright (c) Steve Scherf et al.
# Submitted via: ExactAudioCopy v1.1
#
DISCID=7111bb19
DTITLE=The Carter Family - In The Shadow Of Clinch Mountain  -  CD1
DYEAR=2000
DGENRE=Country
TTITLE0=Bury Me Under The Weeping Willow  (1927)
TTITLE1=Little Log Cabin By The Sea  (1927)
TTITLE2=Poor Orphan Child  (1927)
TTITLE3=The Storms Are On The Ocean  (1927)
TTITLE4=Single Girl, Married Girl  (1927)
TTITLE5=The Wandering Boy  (1927)
TTITLE6=Meet Me By The Moonlight Alone  (1928)
TTITLE7=Little Darling Pal Of Mine  (1928)
TTITLE8=Keep On The Sunny Side  (1928)
TTITLE9=Anchored In Love  (1928)
TTITLE10=John Hardy Was A Desperate Little Man  (1928)
TTITLE11=I Ain't Gonna Work Tomorrow  (1928)
TTITLE12=Will You Miss Me When I'm Gone  (1928)
TTITLE13=River Of Jordan  (1928)
TTITLE14=Chewing Gum  (1928)
TTITLE15=Wildwood Flower  (1928)
TTITLE16=I Have No One To Love Me (But The Sailor On The Deep Blue Sea
TTITLE16=)  (1928)
TTITLE17=Forsaken Love  (1928)
TTITLE18=Sweet Fern  (1929)
TTITLE19=My Clinch Mountain Home  (1929)
TTITLE20=God Gave Noah The Rainbow Sign  (1929)
TTITLE21=I'm Thinking Tonight Of My Blue Eyes  (1929)
TTITLE22=Little Moses  (1929)
TTITLE23=Lulu Wall  (1929)
TTITLE24=Grave On The Green Hillside  (1929)
EXTD=Bear Family CD 15865 LK
EXTT0=01-AUG-1927, Bristol
EXTT1=01-AUG-1927, Bristol
EXTT2=01-AUG-1927, Bristol
EXTT3=01-AUG-1927, Bristol
EXTT4=02-AUG-1927, Bristol
EXTT5=02-AUG-1927, Bristol
EXTT6=09-MAY-1928, Camden
EXTT7=09-MAY-1928, Camden
EXTT8=09-MAY-1928, Camden
EXTT9=09-MAY-1928, Camden
EXTT10=10-MAY-1928, Camden
EXTT11=10-MAY-1928, Camden
EXTT12=10-MAY-1928, Camden
EXTT13=10-MAY-1928, Camden
EXTT14=10-MAY-1928, Camden
EXTT15=10-MAY-1928, Camden
EXTT16=10-MAY-1928, Camden
EXTT17=10-MAY-1928, Camden
EXTT18=14-FEB-1929, Camden
EXTT19=14-FEB-1929, Camden
EXTT20=14-FEB-1929, Camden
EXTT21=14-FEB-1929, Camden
EXTT22=14-FEB-1929, Camden
EXTT23=14-FEB-1929, Camden
EXTT24=14-FEB-1929, Camden
PLAYORDER=
